<svg xmlns="http://www.w3.org/2000/svg" viewBox="0 0 2500 2500" width="2500" height="2500"><path fill="#FFF" d="M0 0h2500v2500H0z"/><g transform="translate(1189.0 170.0) rotate(0.0 327.5 258.0) scale(1.0534272572292451 1.0534310002694824)"><svg width="621.78" height="489.828" viewBox="0 0 621.78 489.828"><g stroke="#000" stroke-linecap="round" stroke-linejoin="round" stroke-miterlimit="10" stroke-width="2"><path d="m37.271 217.458 475.091 270.365s103.824-7.039 108.269-121.073c2.065-52.967-17.146-105.629-66.561-138.139-44.968-29.585-97.739-23.446-97.739-23.446S448.86 89.145 344.543 28.356C214.022-47.703 142.582 58.977 142.582 58.977S85.939 14.116 26.686 83.556c-32.323 37.88 10.585 133.902 10.585 133.902z"/><path d="m52.754 251.97 400.751 225.003c43.858 24.624 99.833 9.744 124.625-34.019 9.256-16.339 15.748-37.474 16.814-64.806 2.065-52.967-16.497-106.637-66.561-138.139-36.632-23.05-93.638-19.469-93.638-19.469S425.474 99.088 318.857 39.753c-132-73.461-186.349 34.303-186.349 34.303s-67.679-50.991-118.67 25.959C1.491 118.648-.226 146.514 1.633 171.569c2.498 33.677 21.676 63.869 51.121 80.401z" fill="#fff"/></g></svg></g><g transform="translate(125.0 1193.0) rotate(0.0 119.5 84.0) scale(1.0331873613951055 1.0384472740759056)"><svg width="231.323" height="161.78" viewBox="0 0 231.323 161.78"><path d="M230.323 108.252v19.533a8.318 8.318 0 0 1-4.368 7.32l-43.839 23.656a14.346 14.346 0 0 1-14.693-.007L3.925 61.163A5.998 5.998 0 0 1 1 56.009v-25.07l.033-.013c0-.001 204.895 61.915 229.29 77.326z" fill="#F39701"/><path d="M174.785 161.786c-2.721 0-5.445-.724-7.875-2.174L3.412 62.022A7.03 7.03 0 0 1 0 56.009v-25.07c0-.41.25-.778.631-.929.386-.218.375-.221 33.094 9.875 17.874 5.516 45.067 13.979 73.111 22.973 72.105 23.124 113.832 38.112 124.021 44.549.29.184.466.503.466.846v19.533a9.305 9.305 0 0 1-4.894 8.2l-43.839 23.655a15.242 15.242 0 0 1-7.805 2.145zM2 32.263v23.746c0 1.754.934 3.4 2.437 4.295l163.499 97.592a13.332 13.332 0 0 0 13.669.006l43.876-23.676a7.31 7.31 0 0 0 3.843-6.44v-18.975C204.382 93.835 19.142 37.46 2 32.263z"/><path d="M228.618 105.133c2.361 1.467 2.246 4.935-.203 6.25l-42.284 22.692c-5.105 2.819-12.653 2.693-17.66-.296L3.922 35.496a5.93 5.93 0 0 1-2.892-4.571c-.21-2.19.761-4.472 2.918-5.745L45.517 3.136C52.561-.653 57.884.965 64.72 5.117c33.562 20.391 134.008 81.45 163.898 100.016z" fill="#F39701"/><path d="M177.605 137.126c-3.432 0-6.874-.833-9.647-2.488L3.409 36.354C1.467 35.187.238 33.242.034 31.016c-.262-2.735 1.042-5.303 3.406-6.697L45.049 2.253c7.452-4.01 13.251-2.206 20.19 2.01 30.851 18.743 133.845 81.348 163.907 100.02a4.56 4.56 0 0 1 2.174 4.061 4.57 4.57 0 0 1-2.432 3.92l-42.284 22.692c-2.625 1.449-5.807 2.17-8.999 2.17zM53.208 1.987c-2.272 0-4.606.625-7.218 2.03L4.417 26.063c-1.648.974-2.58 2.808-2.392 4.766.146 1.588 1.024 2.976 2.412 3.81l164.546 98.282c4.703 2.808 11.869 2.927 16.664.279l42.295-22.698a2.588 2.588 0 0 0 1.378-2.222 2.584 2.584 0 0 0-1.229-2.298C198.037 87.315 95.049 24.714 64.201 5.972c-4.055-2.463-7.448-3.985-10.993-3.985z"/><path d="M230.323 108.252v19.533a8.318 8.318 0 0 1-4.368 7.32l-43.839 23.656a14.346 14.346 0 0 1-14.693-.007l-61.176-36.515V96.613s113.694 5.08 124.076 11.639z" fill="#fff"/><path d="M174.785 161.786c-2.721 0-5.445-.724-7.875-2.174l-61.176-36.515a.999.999 0 0 1-.487-.858V96.613a1.002 1.002 0 0 1 1.044-.999c4.653.208 114.081 5.168 124.566 11.792.29.184.466.503.466.846v19.533a9.305 9.305 0 0 1-4.894 8.2L182.59 159.64a15.233 15.233 0 0 1-7.805 2.146zm-67.538-40.114 60.688 36.224a13.33 13.33 0 0 0 13.669.006l43.876-23.676a7.31 7.31 0 0 0 3.843-6.44V108.84c-10.048-4.931-83.225-9.423-122.076-11.181z"/><path d="M164.595 65.898s53.292 32.569 64.023 39.235c2.361 1.467 2.246 4.935-.203 6.25l-42.284 22.692c-5.105 2.819-12.653 2.693-17.66-.296l-62.224-37.166z" fill="#fff"/><path d="M177.605 137.126c-3.432 0-6.874-.833-9.647-2.488l-62.224-37.166a.998.998 0 0 1 .047-1.743l58.348-30.715a.996.996 0 0 1 .987.031c.533.326 53.418 32.647 64.029 39.239a4.56 4.56 0 0 1 2.174 4.061 4.57 4.57 0 0 1-2.432 3.92l-42.284 22.692c-2.624 1.448-5.806 2.169-8.998 2.169zM108.29 96.668l60.694 36.253c4.703 2.808 11.869 2.927 16.664.279l42.295-22.698a2.591 2.591 0 0 0 1.379-2.222 2.586 2.586 0 0 0-1.23-2.298c-10.061-6.249-58.155-35.648-63.533-38.935z"/><path d="M204.195 107.82c.89.553.847 1.861-.076 2.357l-15.944 8.557c-1.925 1.063-4.771 1.015-6.659-.112l-62.047-37.06a2.232 2.232 0 0 1-1.09-1.724 2.243 2.243 0 0 1 1.1-2.166l15.674-8.312c2.656-1.429 4.663-.819 7.241.747 12.654 7.688 50.53 30.712 61.801 37.713z" fill="#fff"/><path d="M184.965 120.502c-1.408 0-2.822-.342-3.962-1.021l-62.047-37.06a3.224 3.224 0 0 1-1.573-2.492 3.232 3.232 0 0 1 1.589-3.118l15.713-8.334c3.071-1.652 5.426-.927 8.229.776 11.626 7.063 50.442 30.658 61.81 37.718a2.335 2.335 0 0 1 1.114 2.079 2.34 2.34 0 0 1-1.244 2.008l-15.945 8.558c-1.074.592-2.377.886-3.684.886zm-46.908-50.949c-.767 0-1.549.214-2.43.688l-15.679 8.314c-.393.233-.622.685-.574 1.188.037.403.259.751.609.962l62.045 37.059c1.57.938 4.06.98 5.663.096l15.955-8.563a.354.354 0 0 0 .191-.309.35.35 0 0 0-.17-.317c-11.36-7.057-50.17-30.646-61.794-37.708-1.444-.88-2.61-1.41-3.816-1.41z"/></svg></g><g transform="translate(1325.0 400.0) rotate(0.0 131.5 194.5) scale(1.047103742898208 1.041150886584142)"><svg width="251.169" height="373.625" viewBox="0 0 251.169 373.625"><g stroke="#000" stroke-linecap="round" stroke-linejoin="round" stroke-miterlimit="10" stroke-width="2"><path d="m103.799 189.264-82.991-47.14L1 153.82l73.054 57.91z" fill="#FFA71F"/><path d="M118.511 358.946V34.785l-19.97 11.604-.404 326.236zM41.815 177.11l.018-164.414L61.905 1l-.079 164.53z" fill="#fff"/><path d="m250.17 272.403-54.981-31.229V77.205l-19.97 11.604-8.163 169.897 63.104 25.279z"/><g fill="#FFA71F"><path d="m174.816 252.548.403-163.739-4.6-16.638L64.712 12.505l-22.879.191-.018 163.905L1 153.821l97.137 218.804 132.023-88.641z"/><path d="M61.641 1 41.833 12.696l133.386 76.113.039-.069 19.93-11.535z"/></g></g></svg></g><g transform="translate(399.0 456.0) rotate(0.0 755.0 783.5) scale(1.036292187729477 1.0363016398299594)"><svg width="1457.118" height="1512.108" viewBox="0 0 1457.118 1512.108"><path d="M1456.118 500.868a25.02 25.02 0 0 0-12.923-21.902L580.354 2.359a10.896 10.896 0 0 0-11.031.29l-42.011 25.14 33.2 629.301 819.852 470.007L521.843 681.91 1 950.125v45.55c0 3.837 2.018 7.39 5.312 9.357l841.917 502.54a25.019 25.019 0 0 0 25.358.17l569.717-329.737a25.02 25.02 0 0 0 12.487-21.643z"/><path d="M861.054 1512.105a26.013 26.013 0 0 1-13.338-3.675L5.799 1005.891A11.956 11.956 0 0 1 0 995.675v-45.55a1 1 0 0 1 .542-.889l520.843-268.215c.289-.148.63-.148.918.001l816.417 423.354-778.705-446.418a1.002 1.002 0 0 1-.501-.815l-33.2-629.301a.999.999 0 0 1 .485-.911l42.011-25.14a11.902 11.902 0 0 1 12.028-.308l862.841 476.607a26.028 26.028 0 0 1 13.439 22.778l-.327 655.494c-.004 9.251-4.98 17.875-12.986 22.508l-569.717 329.737a26 26 0 0 1-13.034 3.498zM2 950.735v44.939a9.947 9.947 0 0 0 4.825 8.499l841.917 502.54a24.042 24.042 0 0 0 24.345.163l569.717-329.737c7.391-4.277 11.984-12.238 11.988-20.777l.327-655.495a24.026 24.026 0 0 0-12.406-21.026L579.871 3.234a9.911 9.911 0 0 0-10.019.263l-41.51 24.84 33.14 628.155 819.379 469.736a1 1 0 0 1-.957 1.755L521.841 683.036zm1454.118-449.867h.01z"/><path d="M521.843 635.274 6.356 939.657c-7.122 4.205-7.146 14.501-.045 18.74l841.917 502.54a25.021 25.021 0 0 0 25.358.171l543.862-314.781z" fill="#fff"/><path d="M861.054 1465.471a26.013 26.013 0 0 1-13.339-3.675L5.798 959.255C2.157 957.082-.01 953.253 0 949.012c.01-4.24 2.196-8.06 5.848-10.216l515.487-304.383a1 1 0 0 1 1.004-.008l895.605 511.054a.997.997 0 0 1 .006 1.733l-543.862 314.781a26.003 26.003 0 0 1-13.034 3.498zM521.852 636.43 6.864 940.519A9.809 9.809 0 0 0 2 949.017a9.811 9.811 0 0 0 4.823 8.521l841.917 502.541a24.051 24.051 0 0 0 24.345.164l542.356-313.91z"/><path d="m1259.962 1136.711-187.148 108.639a28.432 28.432 0 0 1-28.51.023L356.663 847.711c-9.255-5.352-9.235-18.72.037-24.044L543.883 716.18a28.436 28.436 0 0 1 28.359.023l687.683 396.383c9.285 5.352 9.305 18.744.037 24.125z" fill="#ADC4CB" fill-opacity=".56"/><path d="M1058.539 1250.183a29.42 29.42 0 0 1-14.736-3.944l-687.64-397.662c-4.66-2.694-7.437-7.516-7.429-12.898.008-5.383 2.8-10.197 7.468-12.878l187.183-107.487c9.056-5.202 20.305-5.193 29.356.024l687.683 396.383c4.674 2.693 7.469 7.521 7.478 12.916.008 5.394-2.772 10.231-7.438 12.94l-187.147 108.639a29.449 29.449 0 0 1-14.778 3.967zM558.042 713.417a27.42 27.42 0 0 0-13.661 3.63L357.198 824.534c-4.041 2.32-6.457 6.487-6.464 11.146s2.397 8.833 6.43 11.164l687.641 397.663c8.487 4.908 19.028 4.9 27.508-.023l187.147-108.639c4.04-2.346 6.448-6.535 6.441-11.207-.008-4.672-2.429-8.854-6.476-11.187L571.743 717.069a27.444 27.444 0 0 0-13.701-3.652zm701.92 423.294h.01z"/><path d="m619.802 1264.23-261.291-151.105c-9.257-5.353-9.234-18.724.04-24.046l153.659-88.178a28.436 28.436 0 0 1 28.351.026l260.781 150.299c9.285 5.352 9.306 18.744.038 24.125l-153.067 88.855a28.436 28.436 0 0 1-28.511.024z" fill="#ADC4CB" fill-opacity=".56"/><path d="M634.036 1269.039a29.423 29.423 0 0 1-14.735-3.943l-261.29-151.106c-4.661-2.694-7.438-7.518-7.429-12.901.009-5.384 2.802-10.197 7.472-12.877l153.659-88.178c9.056-5.196 20.302-5.187 29.348.026l260.781 150.299c4.674 2.694 7.47 7.523 7.478 12.917.009 5.394-2.771 10.23-7.437 12.939l-153.067 88.855a29.427 29.427 0 0 1-14.78 3.969zm-13.734-5.675c8.488 4.909 19.028 4.899 27.509-.023l153.067-88.855c4.04-2.345 6.447-6.534 6.44-11.205-.007-4.673-2.428-8.854-6.476-11.188l-260.781-150.299c-8.432-4.858-18.913-4.868-27.354-.024l-153.659 88.178c-4.042 2.319-6.459 6.486-6.467 11.146-.007 4.66 2.396 8.835 6.43 11.168z"/><path d="m522.131 37.056-.288 598.218 895.606 511.052V527.904a25.02 25.02 0 0 0-12.923-21.902L538.296 27.523c-7.26-4.011-16.161 1.238-16.165 9.533z" fill="#F39701"/><path d="M1417.449 1147.326a.992.992 0 0 1-.495-.132L521.347 636.143a1 1 0 0 1-.504-.869l.288-598.218h1-1c.002-4.253 2.19-8.082 5.854-10.242 3.663-2.161 8.074-2.222 11.794-.166l866.23 478.479a26.027 26.027 0 0 1 13.439 22.777v618.422a1 1 0 0 1-.999 1zM522.843 634.693l893.606 509.911v-616.7a24.026 24.026 0 0 0-12.406-21.026L537.812 28.398c-3.095-1.711-6.764-1.659-9.812.138a9.81 9.81 0 0 0-4.87 8.521z"/><path d="m521.861 598.043-.018 37.231 895.605 511.052v-43.297z" fill="#824905"/><path d="M1417.448 1147.326a.999.999 0 0 1-.496-.132L521.347 636.143a1 1 0 0 1-.504-.869l.018-37.231a1 1 0 0 1 1.492-.87l895.587 504.986c.314.178.509.51.509.871v43.297a.996.996 0 0 1-1.001.999zM522.843 634.693l893.605 509.911v-40.991L522.86 599.754z"/><path d="M1412.496 512.973s-4.789-5.214-7.975-6.971L538.301 27.526c-3.598-1.99-7.59-1.703-10.711.095l41.737-24.973a10.868 10.868 0 0 1 11.021-.286l862.848 476.605c3.983 2.203 9.442 9.181 9.442 9.181z" fill="#fff"/><path d="M1412.496 513.973a.999.999 0 0 1-.736-.323c-.047-.051-4.717-5.115-7.721-6.772L537.817 28.401a9.822 9.822 0 0 0-9.729.086 1 1 0 0 1-1.012-1.724L568.814 1.79a11.867 11.867 0 0 1 12.02-.302l862.846 476.604c4.114 2.276 9.518 9.149 9.745 9.44a.997.997 0 0 1-.261 1.467l-40.142 24.825c-.163.1-.345.149-.526.149zM533.637 25.168c1.77.092 3.526.586 5.147 1.483l866.22 478.476c2.663 1.469 6.274 5.114 7.66 6.566l38.48-23.798c-1.578-1.909-5.488-6.424-8.434-8.053L579.865 3.237a9.877 9.877 0 0 0-10.009.259z"/><path d="M858.779 1511.004s-7.278-1.479-10.55-3.43L6.316 1005.031a10.88 10.88 0 0 1-5.314-9.353v-45.55l.072-.036c.298 3.253 2.049 6.398 5.243 8.304L848.23 1460.94c3.408 2.031 11.006 3.464 11.006 3.464z" fill="#ADC4CB" fill-opacity=".56"/><path d="M858.779 1512.004a.961.961 0 0 1-.199-.021c-.304-.062-7.483-1.535-10.863-3.55L5.803 1005.89a11.942 11.942 0 0 1-5.801-10.212v-45.55c0-.379.214-.725.553-.895.295-.147.681-.157.97.003s.516.436.545.765c.29 3.157 2.024 5.904 4.76 7.537l841.914 502.543c3.214 1.916 10.604 3.326 10.679 3.341a1 1 0 0 1 .814.992l-.457 46.6a1 1 0 0 1-1.001.99zM2.002 955.66v40.018a9.931 9.931 0 0 0 4.826 8.494l841.914 502.544c2.318 1.382 6.888 2.546 9.05 3.046l.438-44.54c-2.098-.438-7.633-1.708-10.51-3.423L5.804 959.255a11.864 11.864 0 0 1-3.802-3.595z"/></svg></g><g transform="translate(1066.0 671.0) rotate(0.0 315.5 365.0) scale(1.0388951818972103 1.0372751208851791)"><svg width="607.376" height="703.767" viewBox="0 0 607.376 703.767"><path d="M1.192 2.575 1 358.82a12.712 12.712 0 0 0 6.314 10.99l573.987 330.667c11.12 6.476 25.075-1.547 25.075-14.415V352.72z" fill="#fff"/><path d="M589.693 703.771c-3.057 0-6.113-.811-8.896-2.431L6.815 370.676A13.752 13.752 0 0 1 0 358.82L.192 2.575a1 1 0 0 1 1.5-.866l605.184 350.145a1 1 0 0 1 .499.866v333.342c0 6.405-3.315 12.136-8.87 15.328-2.761 1.589-5.786 2.381-8.812 2.381zM2.191 4.309 2 358.821a11.746 11.746 0 0 0 5.817 10.124L581.8 699.61c4.912 2.861 10.784 2.877 15.71.047 4.926-2.832 7.866-7.914 7.866-13.595V353.297z"/><path d="M606.376 376.971V349.53a28.17 28.17 0 0 0-14.339-24.541L20.142 2.656c-8.47-4.774-18.946 1.343-18.95 11.066l-.014 28.156z" fill="#D48405"/><path d="M606.376 377.971a1 1 0 0 1-.484-.125L.694 42.753a1.002 1.002 0 0 1-.516-.875l.014-28.156C.194 8.796 2.734 4.373 6.987 1.889c4.252-2.485 9.354-2.523 13.646-.104l571.895 322.333a29.21 29.21 0 0 1 14.848 25.412v27.441a1 1 0 0 1-1 1zM2.179 41.289l603.197 333.986V349.53a27.205 27.205 0 0 0-13.83-23.669L19.651 3.527c-3.664-2.065-8.021-2.032-11.655.089-3.633 2.122-5.803 5.9-5.804 10.106z"/></svg></g><g transform="translate(1024.0 755.0) rotate(0.0 251.0 302.5) scale(1.0436156500769198 1.0429649856829353)"><svg width="481.02" height="580.077" viewBox="0 0 481.02 580.077"><path d="M15.268 2.873 6.606 9.145l-5.043 5.97 8.806 304.351a9.856 9.856 0 0 0 4.778 8.165L453.43 579.04s24.707 1.807 26.591-19.668V270.994a21.85 21.85 0 0 0-11.12-19.033L25.888 2.27a9.857 9.857 0 0 0-10.62.603z"/><path d="M454.864 580.08c-.89 0-1.435-.037-1.508-.043a.995.995 0 0 1-.424-.13L14.649 328.498a10.812 10.812 0 0 1-5.28-9.004L.563 15.144a1.004 1.004 0 0 1 .235-.674L5.842 8.5c.053-.062.112-.117.178-.165l8.662-6.272.586.81-.586-.81a10.886 10.886 0 0 1 11.697-.664L469.393 251.09a22.882 22.882 0 0 1 11.629 19.904v288.378c-1.024 11.713-8.545 16.697-14.674 18.831-4.693 1.634-9.213 1.877-11.484 1.877zm-1.143-2.026c1.139.053 6.538.165 12.024-1.758 8.069-2.83 12.538-8.553 13.28-17.012l-.004-288.29a20.879 20.879 0 0 0-10.611-18.162L25.397 3.141a8.876 8.876 0 0 0-9.542.542l-8.563 6.2-4.717 5.585 8.795 303.968a8.814 8.814 0 0 0 4.293 7.337z"/><path d="M1.149 17.96 1 326.584a9.856 9.856 0 0 0 4.897 8.523l439.522 241.642c11.12 6.476 25.075-1.546 25.075-14.415V278.393a21.85 21.85 0 0 0-11.12-19.033L15.845 9.378C9.277 5.676 1.152 10.42 1.149 17.96z" fill="#adc4cb"/><path d="M453.812 580.044c-3.058 0-6.113-.811-8.896-2.431L5.415 335.983a10.901 10.901 0 0 1-5.415-9.4L.149 17.959c.001-3.9 2.013-7.402 5.381-9.37 3.369-1.967 7.408-1.999 10.806-.083l443.529 249.982a22.882 22.882 0 0 1 11.629 19.904v283.941c0 6.406-3.315 12.136-8.869 15.328-2.762 1.589-5.788 2.383-8.813 2.383zM11.004 9.095a8.836 8.836 0 0 0-4.465 1.222 8.77 8.77 0 0 0-4.39 7.644L2 326.585a8.887 8.887 0 0 0 4.4 7.658l439.5 241.63c4.932 2.871 10.802 2.889 15.728.056 4.926-2.831 7.866-7.913 7.866-13.595V278.393a20.879 20.879 0 0 0-10.611-18.162L15.354 10.249a8.835 8.835 0 0 0-4.35-1.154zM1.149 17.96h.01z"/><path d="M470.493 299.674v-21.282a21.85 21.85 0 0 0-11.12-19.033L15.845 9.378C9.277 5.676 1.152 10.42 1.149 17.96l-.011 21.836z" fill="#F39701"/><path d="M470.493 300.674a1 1 0 0 1-.484-.125L.654 40.671a1.002 1.002 0 0 1-.516-.875L.149 17.96c.001-3.9 2.013-7.403 5.381-9.37 3.369-1.967 7.408-1.998 10.806-.083l443.528 249.981a22.882 22.882 0 0 1 11.629 19.904v21.282a1 1 0 0 1-1 1zM2.139 39.207l467.354 258.771v-19.585a20.879 20.879 0 0 0-10.611-18.162L15.354 10.249a8.773 8.773 0 0 0-8.815.068 8.77 8.77 0 0 0-4.39 7.644z"/></svg></g><g transform="translate(739.0 469.0) rotate(0.0 286.5 355.5) scale(1.040677221155715 1.0419109026963658)"><svg width="550.603" height="682.4" viewBox="0 0 550.603 682.4"><g stroke="#050300" stroke-linecap="round" stroke-linejoin="round" stroke-miterlimit="10" stroke-width="2" stroke-opacity=".5"><path d="m17.34 3.145-9.92 7.183-5.776 6.837 10.085 348.561a11.289 11.289 0 0 0 5.472 9.351l501.093 305.66s28.973 6.44 31.309-20.825V310.213a25.018 25.018 0 0 0-12.736-21.797L29.504 2.455a11.288 11.288 0 0 0-12.164.69z" fill="#050300" fill-opacity=".5"/><path d="M1.17 20.424 1 373.879a11.289 11.289 0 0 0 5.608 9.761l507.01 295.239c11.12 6.476 25.075-1.546 25.075-14.415V318.687a25.018 25.018 0 0 0-12.736-21.797L18.002 10.595c-7.523-4.24-16.828 1.193-16.832 9.829z" fill="#fff"/><path d="M538.692 343.06v-24.373a25.018 25.018 0 0 0-12.736-21.797L18.002 10.595c-7.523-4.24-16.827 1.193-16.832 9.829l-.012 25.007z" fill="#F39701"/><g fill="none"><path d="M442.173 568.244 71.832 357.599m0-203.723 372.922 213.478M71.832 317.082l370.854 211.206M71.832 276.451l371.369 211.771M71.832 235.707l371.885 212.338M71.832 194.849l372.403 212.906"/></g></g></svg></g><g transform="translate(1737.0 1357.0) rotate(0.0 50.5 84.5) scale(1.0506714935139239 1.0457273683559185)"><svg width="96.129" height="161.61" viewBox="0 0 96.129 161.61"><path d="M7.352 10.436v105.656l78.951 44.518-.009-109.17z" fill="#adc4cb"/><path d="M86.303 161.61a.998.998 0 0 1-.491-.129L6.861 116.963a1.002 1.002 0 0 1-.509-.871V10.436a.998.998 0 0 1 1.461-.887l78.942 41.004a1 1 0 0 1 .539.887l.009 109.17a.997.997 0 0 1-1 1zM8.352 115.508l76.951 43.391-.009-106.852L8.352 12.083z"/><path d="m1 1 .125 20.598 94.004 49.29V48.454z" fill="#adc4cb"/><path d="M95.129 71.888a1.01 1.01 0 0 1-.465-.114L.661 22.484a1.001 1.001 0 0 1-.536-.88L0 1.006A1 1 0 0 1 1.45.107l94.129 47.454c.337.17.55.516.55.893v22.434a1 1 0 0 1-1 1zM2.121 20.991l92.008 48.244V49.07L2.01 2.629z"/></svg></g><g transform="translate(1288.0 1743.0) rotate(0.0 549.0 336.5) scale(1.042340081963245 1.0426317077780636)"><svg width="1053.399" height="645.482" viewBox="0 0 1053.399 645.482"><path d="M447.964 644.482 6.046 382.242a42.051 42.051 0 0 1-.075-39.808l.075-.139L563.843 56.59 1019.3 313.479z"/><path d="M447.964 645.482a1 1 0 0 1-.51-.14L5.536 383.103a1.002 1.002 0 0 1-.37-.386 42.949 42.949 0 0 1-.077-40.755l.076-.142a.999.999 0 0 1 .424-.415L563.387 55.7c.3-.152.655-.146.947.019l455.457 256.889a1 1 0 0 1 .01 1.736L448.465 645.348a.996.996 0 0 1-.501.134zM6.796 381.524 447.97 643.323l569.315-329.833L563.82 57.725 6.78 343.042a40.95 40.95 0 0 0 .016 38.482z"/><path d="M682.876 63.146 144.297 371.687l367.67 212.643 540.432-311.854z" fill="#adc4cb"/><path d="M511.967 585.33a.99.99 0 0 1-.5-.135l-367.67-212.643a1.001 1.001 0 0 1 .003-1.733L682.379 62.278a1 1 0 0 1 .99-.002l369.523 209.33a1 1 0 0 1 .007 1.736L512.467 585.196a1.005 1.005 0 0 1-.5.134zM146.301 371.691l365.666 211.483 538.417-310.691L682.879 64.297z"/><path d="M660.441 1 17.574 369.286l364.26 215.044 648.13-374z" fill="#fff"/><path d="M381.834 585.33a.991.991 0 0 1-.508-.139L17.066 370.147a1.002 1.002 0 0 1 .011-1.729L659.944.132a1 1 0 0 1 .99-.002l369.522 209.33a1 1 0 0 1 .007 1.736l-648.13 374a.999.999 0 0 1-.499.134zM19.563 369.299 381.84 583.172l646.109-372.834L660.444 2.151z"/><path d="M447.964 604.534 6.046 342.295 563.843 16.642l259.972 149.362c9.344 5.368 9.28 18.871-.114 24.15l-18.698 10.508c-6.499 3.653-6.642 12.958-.258 16.809l152.523 91.998z" fill="#F39701"/><path d="M447.964 605.534a1 1 0 0 1-.51-.14L5.536 343.155a1.001 1.001 0 0 1 .006-1.723L563.339 15.778a1 1 0 0 1 1.002-.003l259.973 149.362c4.704 2.703 7.497 7.555 7.472 12.98-.026 5.425-2.865 10.251-7.594 12.908l-18.698 10.508a8.643 8.643 0 0 0-4.45 7.474 8.638 8.638 0 0 0 4.219 7.607l152.522 91.998a1 1 0 0 1-.016 1.721L448.465 605.399a.997.997 0 0 1-.501.135zM8.017 342.302 447.97 603.375l507.333-293.924-151.074-91.124c-3.307-1.995-5.245-5.49-5.186-9.351.06-3.86 2.104-7.294 5.47-9.186l18.698-10.508c4.094-2.301 6.552-6.478 6.574-11.175.021-4.696-2.396-8.897-6.468-11.236L563.847 17.798z"/><path d="M624.73 369.189 401.277 235.491l81.241-47.855 226.737 132.743z" fill="#fff"/><path d="M624.73 370.189a.999.999 0 0 1-.514-.142L400.763 236.349a.998.998 0 0 1 .007-1.719l81.241-47.855a1 1 0 0 1 1.013-.001L709.76 319.516a1 1 0 0 1-.005 1.729l-84.524 48.811a1.005 1.005 0 0 1-.501.133zM403.236 235.498l221.503 132.531 82.526-47.656L482.52 188.796z"/></svg></g><g transform="translate(252.0 820.0) rotate(0.0 183.5 220.5) scale(1.0354741597000228 1.041553497116243)"><svg width="354.427" height="423.406" viewBox="0 0 354.427 423.406"><path d="m353.427 344.766-209.27-119.414 30.309-218.44 178.881 94.744z" fill="#F39701"/><path d="M353.427 345.766a.999.999 0 0 1-.496-.132L143.662 226.22a1 1 0 0 1-.495-1.006L173.475 6.775a1.003 1.003 0 0 1 1.459-.747l178.88 94.744a1 1 0 0 1 .532.883l.08 243.11a.996.996 0 0 1-.498.864.977.977 0 0 1-.501.137zM145.241 224.818l207.185 118.225-.079-240.785L175.26 8.464z"/><path d="M309.14 127.759 132.743 27.103 176.95 1l176.397 100.656z" fill="#F1A52B"/><path d="M309.14 128.759c-.171 0-.342-.044-.496-.131L132.248 27.972a.998.998 0 0 1-.012-1.73L176.443.139a1.003 1.003 0 0 1 1.004-.007l176.397 100.656a1 1 0 0 1 .013 1.73l-44.207 26.103a1.028 1.028 0 0 1-.51.138zM134.735 27.088l174.396 99.514 42.224-24.932L176.959 2.156zM24.627 295.798l195.324 126.608 133.476-77.64-97.692-55.745-103.288-70.731z"/><path d="M219.951 423.406c-.189 0-.379-.054-.544-.161L24.083 296.637a1 1 0 0 1 .025-1.695l127.82-77.508a1 1 0 0 1 1.083.03L256.3 288.195l97.621 55.701a.999.999 0 0 1 .008 1.732l-133.476 77.641a.98.98 0 0 1-.502.137zM26.509 295.826 219.98 421.232l131.444-76.458-96.184-54.884-102.826-70.41z"/><path d="M219.951 422.406 16.301 300.848 132.743 27.103 309.14 127.759z" fill="#F1A52B"/><path d="M219.951 423.406c-.178 0-.355-.048-.513-.142L15.788 301.706a1.001 1.001 0 0 1-.408-1.25L131.823 26.711a1 1 0 0 1 1.416-.477L309.636 126.89c.404.231.596.712.461 1.158l-89.188 294.648a1.003 1.003 0 0 1-.958.71zM17.562 300.437l201.803 120.455 88.586-292.659-174.727-99.705z"/><path d="M226.36 398.661h-21.71L22.789 282.647l89.699-248.612 20.255-7.149L309.14 127.542z" fill="#adc4cb"/><path d="M226.36 399.661h-21.71c-.19 0-.377-.055-.538-.157L22.251 283.49a.999.999 0 0 1-.403-1.183l89.699-248.612c.102-.282.325-.504.607-.604l20.255-7.149a1 1 0 0 1 .829.074l176.397 100.656a1 1 0 0 1 .46 1.161l-82.779 271.119a.998.998 0 0 1-.956.709zm-21.418-2h20.678l82.33-269.646L132.645 27.981l-19.377 6.839-89.267 247.414z"/><path d="m204.65 398.661 84.234-263.971 20.255-6.932-82.78 270.903z" fill="#adc4cb"/><path d="M226.359 399.661H204.65a1.001 1.001 0 0 1-.954-1.304l84.233-263.972c.097-.301.33-.54.629-.642l20.255-6.932a1 1 0 0 1 1.281 1.239l-82.779 270.903a.998.998 0 0 1-.956.708zm-20.339-2h19.6l81.991-268.323-17.927 6.135z"/><path d="M204.65 398.661 1 277.103 112.488 34.035l176.397 100.656z" fill="#fff"/><path d="M204.65 399.661a1 1 0 0 1-.513-.142L.487 277.961a1 1 0 0 1-.396-1.275L111.579 33.618a1.001 1.001 0 0 1 1.405-.452l176.397 100.656c.409.234.6.723.457 1.173l-84.234 263.97a1.002 1.002 0 0 1-.954.696zM2.283 276.704l201.798 120.452 83.604-261.998-174.744-99.713z"/><path d="M231.159 141.904a1 1 0 0 1-.902-.566c-2.076-4.313-2.858-9.438-2.324-15.233 2.165-23.469 24.263-45.658 45.471-45.658 4.495 0 8.479 1.026 11.841 3.048a1 1 0 1 1-1.031 1.714c-3.046-1.833-6.683-2.762-10.81-2.762-20.271 0-41.4 21.306-43.479 43.842-.501 5.429.217 10.2 2.135 14.181a1 1 0 0 1-.901 1.434zM144.64 90.917a.998.998 0 0 1-.901-.566c-2.077-4.312-2.858-9.438-2.324-15.233 2.164-23.469 24.262-45.658 45.469-45.658 4.497 0 8.481 1.026 11.842 3.048a1 1 0 1 1-1.031 1.714c-3.045-1.833-6.683-2.762-10.811-2.762-20.27 0-41.399 21.306-43.478 43.842-.5 5.429.217 10.2 2.134 14.181a1 1 0 0 1-.9 1.434z"/><path d="m115.932 156.542-.276-.132-19.23 1.211 1.771-10.538 24.028-1.465 10.397 4.886-40.087 95.784-12.049-6.277z" fill="#F39701" fill-opacity=".74"/><path d="M92.535 247.288c-.159 0-.318-.038-.462-.113l-12.049-6.277a.998.998 0 0 1-.458-1.277l34.878-82.132-17.955 1.131a1 1 0 0 1-1.05-1.164l1.771-10.538c.077-.459.461-.804.925-.833l24.028-1.465a.97.97 0 0 1 .486.093l10.397 4.886a1 1 0 0 1 .497 1.292l-40.087 95.784a1 1 0 0 1-.921.613zm-10.767-7.737 10.265 5.348 39.297-93.897-9.299-4.37-22.979 1.401-1.431 8.511 17.972-1.132a.994.994 0 0 1 .494.096l.276.132a1 1 0 0 1 .49 1.293z"/><path d="m167.487 285.331 10.745-28.201-44.758-22.667 3.567-8.842 66.94-41.578 14.15 6.65-23.204 61.918 13.942 6.984-4.047 11.001-13.981-7.081-10.655 28.43zm14.866-39.018 12.723-33.395a271.448 271.448 0 0 1 6.305-15.164l-.446-.213a265.687 265.687 0 0 1-13.55 10.58l-36.573 22.025-.121.306z" fill="#F39701" fill-opacity=".74"/><path d="M180.186 292.945c-.159 0-.317-.038-.462-.113l-12.699-6.614a1.001 1.001 0 0 1-.473-1.243l10.425-27.359-43.955-22.26a1.002 1.002 0 0 1-.476-1.267l3.567-8.842c.079-.197.219-.363.399-.476l66.941-41.578a1 1 0 0 1 .953-.055l14.149 6.649c.471.222.693.769.511 1.256l-22.889 61.076 13.139 6.58a1 1 0 0 1 .49 1.24l-4.047 11.001a1.003 1.003 0 0 1-1.39.547l-12.984-6.577-10.264 27.385a1.003 1.003 0 0 1-.935.65zm-11.448-8.09 10.907 5.681 10.259-27.372a1 1 0 0 1 1.388-.542l12.979 6.574 3.351-9.107-13.144-6.583a1 1 0 0 1-.488-1.245l22.881-61.055-12.823-6.026-66.202 41.119-3.101 7.688 43.939 22.252c.456.231.664.771.482 1.249zm13.615-37.542c-.154 0-.308-.035-.448-.105l-31.661-15.861a1 1 0 0 1-.482-1.263l.121-.306a.998.998 0 0 1 .414-.488l36.573-22.025a266.777 266.777 0 0 0 13.427-10.493.997.997 0 0 1 1.069-.133l.446.213a.999.999 0 0 1 .48 1.314c-2.222 4.917-4.336 10-6.281 15.109l-12.724 33.396a1 1 0 0 1-.934.642zm-29.801-17.047 29.26 14.658 12.33-32.362a274.27 274.27 0 0 1 5.012-12.259 262.972 262.972 0 0 1-11.178 8.625z"/></svg></g></svg>